<svg xmlns="http://www.w3.org/2000/svg" xmlns:xlink="http://www.w3.org/1999/xlink" viewBox="0 0 700 700"><defs><style>.cls-1{fill:url(#linear-gradient);}.cls-2{fill:#fff;}.cls-3,.cls-4{fill:none;stroke:#fff;}.cls-3{stroke-linejoin:bevel;stroke-width:22.4px;}.cls-4{stroke-linecap:square;stroke-miterlimit:10;stroke-width:16px;}</style><linearGradient id="linear-gradient" x1="350" y1="28.71" x2="350" y2="592.13" gradientUnits="userSpaceOnUse"><stop offset="0" stop-color="#fecd95"/><stop offset="0.5" stop-color="#f58433"/><stop offset="1" stop-color="#f15838"/></linearGradient></defs><g id="Layer_4" data-name="Layer 4"><rect class="cls-1" x="68.29" y="28.71" width="563.42" height="563.42" rx="35.2"/><path class="cls-2" d="M382.27,462.69c-11.08-16.46-41.59-27.12-41.59-27.12s-.82,12.49-4.1,18.9c-3.86,7.52-6.38,10.87-13,18.87-4.57,5.51-14.75,19.48-12.34,32.87,2.44,13.57,14.27,24.25,24.35,28,1,.37,2.62.91,4.67,1.45-.14-.19-.27-.38-.38-.56A43.33,43.33,0,0,1,333.75,504c2.82-14.95,11.89-21.58,14.76-23.4.27-.16,1,.17.84.5-3.62,9.1-1.26,22.5,4.39,25.18,6.82,3.24,11-2.61,12.23-10.61.1-.71.91-.86,1.18-.21a44.89,44.89,0,0,1,3.25,16.72c.15,17.17-8.21,23.42-11.37,25.73a16.91,16.91,0,0,0,2.42-.14c12.48-2.64,23.13-15.26,27.82-25.72C399.73,488.63,385.31,467.21,382.27,462.69Z"/><path class="cls-2" d="M327.09,423.25a35.36,35.36,0,0,1-6,1.12,35.71,35.71,0,0,1-6.21.14,39.1,39.1,0,0,1-6.23-.88,38.45,38.45,0,0,1-6.09-1.84,47.68,47.68,0,0,1-11.23-6.17,56.53,56.53,0,0,1-9.41-8.82l1-8.46a105.94,105.94,0,0,1,33.92-22.49A93.41,93.41,0,0,1,337,370.12,94.35,94.35,0,0,1,358.13,369c1.77.07,3.52.32,5.29.48s3.51.47,5.24.8l2.61.49c.86.18,1.72.39,2.58.58,1.74.36,3.42.87,5.12,1.35a97.25,97.25,0,0,1,9.91,3.55,99.43,99.43,0,0,1,9.4,4.57,106.41,106.41,0,0,1,17,11.72A113.36,113.36,0,0,1,429.71,407l-12.08,9.45a164.25,164.25,0,0,0-14.09-22.74A123.53,123.53,0,0,0,385.28,374a103.41,103.41,0,0,0-47.81-23.6A94.19,94.19,0,0,0,311,349a109.21,109.21,0,0,0-25.69,5.54,139.69,139.69,0,0,0-23.76,10.76,149.42,149.42,0,0,0-21.33,14.53l-14.93-13.2c.88-1.55,1.7-2.87,2.55-4.21s1.72-2.63,2.6-3.91q2.64-3.84,5.49-7.46A171.91,171.91,0,0,1,248,337.19a168.48,168.48,0,0,1,13.63-12.52,150.82,150.82,0,0,1,15.13-10.86,134.4,134.4,0,0,1,34.16-15.36,128.48,128.48,0,0,1,18.38-3.93c3.1-.43,6.22-.76,9.33-1s6.23-.33,9.38-.35a128.41,128.41,0,0,1,36.89,5.43,144,144,0,0,1,33.37,14.9,166,166,0,0,1,40.5,34.76,101.88,101.88,0,0,1,10.36,14.35l-1.82,1.31c-2-2-4.12-3.9-6.3-5.73s-4.38-3.65-6.63-5.38c-4.52-3.46-9.08-6.8-13.82-9.86a194.69,194.69,0,0,0-29.32-16,150.3,150.3,0,0,0-31-9.74,123,123,0,0,0-31.56-2,131,131,0,0,0-15.64,2.06,137.07,137.07,0,0,0-15.23,3.9,142.84,142.84,0,0,0-14.65,5.65,151,151,0,0,0-14,7.29,154.67,154.67,0,0,0-25.59,19,151,151,0,0,0-11.29,11.48c-1.77,2-3.49,4.07-5.12,6.16-.82,1-1.62,2.1-2.38,3.15s-1.52,2.13-2.12,3l-14.93-13.2a135.12,135.12,0,0,1,53.84-23.39,127.52,127.52,0,0,1,29.14-2.15,133.26,133.26,0,0,1,14.43,1.43c2.38.39,4.75.8,7.1,1.33s4.68,1.05,7,1.68A143.73,143.73,0,0,1,365.89,353c4.24,2.16,8.39,4.46,12.4,7s7.95,5.19,11.79,8a201.51,201.51,0,0,1,21.72,18.59,178.33,178.33,0,0,1,18.91,21.8l-12.07,9.44a136.08,136.08,0,0,0-29.47-19.42c-10.43-5-21.35-8.61-32.62-9.68a83.16,83.16,0,0,0-17,0,79,79,0,0,0-8.48,1.3c-2.82.57-5.62,1.25-8.4,2.1A111.52,111.52,0,0,0,291,407.89l1-8.46a49.71,49.71,0,0,0,6.25,8.3,43.33,43.33,0,0,0,8,6.77,40.05,40.05,0,0,0,9.64,4.62,40.83,40.83,0,0,0,5.34,1.32,45.18,45.18,0,0,0,5.61.59Z"/><path class="cls-3" d="M182.75,310.42c20.33-21.82,81.66-81.67,169.74-81.42,87.42.25,148.26,59.54,168.65,81.42"/><polyline class="cls-4" points="571.58 270.37 506.21 218.76 506.21 121.89 449.16 122.34 448.82 173.46 350 95.45 128.42 270.37"/></g></svg>