<svg id="Layer_3" data-name="Layer 3" xmlns="http://www.w3.org/2000/svg" viewBox="0 0 700 700"><defs><style>.cls-1{fill:#332f2a;}.cls-2,.cls-3{fill:none;stroke:#332f2a;}.cls-2{stroke-linejoin:bevel;stroke-width:22.4px;}.cls-3{stroke-linecap:square;stroke-miterlimit:10;stroke-width:16px;}</style></defs><path class="cls-1" d="M378.44,515.35c-11.08-16.45-41.59-27.11-41.59-27.11s-.82,12.49-4.1,18.89c-3.86,7.53-6.38,10.88-13,18.87-4.57,5.52-14.75,19.48-12.34,32.88,2.44,13.57,14.27,24.24,24.35,28a48.43,48.43,0,0,0,4.67,1.46,6.27,6.27,0,0,1-.38-.57,43.33,43.33,0,0,1-6.12-31.16c2.82-14.94,11.89-21.57,14.77-23.39.26-.17,1,.17.83.5-3.61,9.1-1.26,22.49,4.39,25.18,6.82,3.23,11-2.62,12.23-10.62a.61.61,0,0,1,1.18-.21,45,45,0,0,1,3.25,16.73c.15,17.16-8.21,23.41-11.37,25.72a16.91,16.91,0,0,0,2.42-.14c12.48-2.64,23.13-15.25,27.82-25.72C395.9,541.3,381.48,519.88,378.44,515.35Z"/><path class="cls-1" d="M323.26,475.92a35.36,35.36,0,0,1-6,1.12,36.73,36.73,0,0,1-6.21.14,40.27,40.27,0,0,1-6.23-.88,38.45,38.45,0,0,1-6.09-1.84,48.08,48.08,0,0,1-11.23-6.18,56.89,56.89,0,0,1-9.41-8.81l1-8.46A105.61,105.61,0,0,1,313,428.52a95.83,95.83,0,0,1,9.87-3.42,99.09,99.09,0,0,1,10.27-2.32,94.35,94.35,0,0,1,21.12-1.09c1.77.07,3.52.33,5.29.49s3.51.46,5.24.8l2.61.49c.86.18,1.72.38,2.58.58,1.74.36,3.42.87,5.12,1.34a95.95,95.95,0,0,1,19.31,8.13,105.71,105.71,0,0,1,17,11.71,113.44,113.44,0,0,1,14.43,14.48l-12.08,9.44a164.85,164.85,0,0,0-14.09-22.74,123.46,123.46,0,0,0-18.26-19.77A103.41,103.41,0,0,0,333.64,403a93.82,93.82,0,0,0-26.52-1.33,108.72,108.72,0,0,0-25.69,5.54A138.91,138.91,0,0,0,257.67,418a150.2,150.2,0,0,0-21.33,14.52l-14.93-13.19c.88-1.55,1.7-2.87,2.55-4.22s1.72-2.63,2.6-3.91q2.64-3.82,5.49-7.46a173.64,173.64,0,0,1,12.11-13.9,170.2,170.2,0,0,1,13.63-12.51,152.52,152.52,0,0,1,15.13-10.87,134.72,134.72,0,0,1,34.16-15.35,125.81,125.81,0,0,1,18.38-3.93c3.1-.44,6.22-.77,9.33-1s6.23-.34,9.38-.35a128.41,128.41,0,0,1,36.89,5.43,143.61,143.61,0,0,1,33.37,14.9A165.55,165.55,0,0,1,442.81,388a169.68,169.68,0,0,1,12.12,12.92,102,102,0,0,1,10.36,14.36l-1.82,1.3c-2-2-4.12-3.89-6.3-5.72s-4.38-3.65-6.63-5.38c-4.52-3.46-9.08-6.81-13.82-9.86a193.8,193.8,0,0,0-29.32-15.95,149.09,149.09,0,0,0-31-9.74,122.6,122.6,0,0,0-31.56-2A133.09,133.09,0,0,0,329.22,370a139.31,139.31,0,0,0-15.23,3.9,142.9,142.9,0,0,0-14.65,5.66,146.3,146.3,0,0,0-14,7.29,154.05,154.05,0,0,0-25.59,19,151.11,151.11,0,0,0-11.29,11.49c-1.77,2-3.49,4.06-5.12,6.15-.82,1.05-1.62,2.1-2.38,3.15s-1.52,2.13-2.12,3.05L223.92,416.5a134.95,134.95,0,0,1,53.84-23.4A128.09,128.09,0,0,1,306.9,391a133.27,133.27,0,0,1,14.43,1.44c2.38.38,4.75.79,7.1,1.32s4.68,1.06,7,1.68a143.07,143.07,0,0,1,26.64,10.24c4.24,2.15,8.39,4.46,12.4,7s8,5.19,11.79,8A202.55,202.55,0,0,1,408,439.19,179.08,179.08,0,0,1,426.88,461l-12.07,9.44A136,136,0,0,0,385.34,451c-10.43-5-21.35-8.61-32.62-9.69a83.16,83.16,0,0,0-17,0,81.51,81.51,0,0,0-8.48,1.29c-2.82.57-5.62,1.26-8.4,2.1a111.78,111.78,0,0,0-31.71,15.84l1-8.46a49.84,49.84,0,0,0,6.25,8.3,43.33,43.33,0,0,0,8,6.77,39.32,39.32,0,0,0,9.64,4.62,42.25,42.25,0,0,0,5.35,1.33,43,43,0,0,0,5.6.58Z"/><path class="cls-2" d="M178.92,363.08c20.33-21.81,81.66-81.66,169.74-81.41,87.42.24,148.26,59.53,168.65,81.41"/><polyline class="cls-3" points="567.75 323.03 502.38 271.43 502.38 174.56 445.33 175 444.99 226.13 346.17 148.12 124.59 323.03"/></svg>