<svg xmlns="http://www.w3.org/2000/svg" viewBox="0 0 943.72 196.09"><defs><style>.cls-1{fill:#332b2a;}.cls-2{fill:none;stroke:#332b2a;stroke-linejoin:bevel;stroke-width:11.2px;}</style></defs><g id="Layer_5" data-name="Layer 5"><path class="cls-1" d="M356.66,81.34c-10.07-15-37.81-24.65-37.81-24.65s-.75,11.36-3.73,17.18c-3.51,6.85-5.8,9.89-11.83,17.16-4.15,5-13.41,17.71-11.22,29.89,2.22,12.34,13,22,22.14,25.46.91.35,2.38.83,4.25,1.33a5.26,5.26,0,0,1-.35-.52,39.4,39.4,0,0,1-5.56-28.33c2.56-13.58,10.81-19.62,13.42-21.27.24-.15.88.15.76.46-3.29,8.27-1.14,20.45,4,22.89,6.21,2.94,10-2.38,11.12-9.65.1-.64.83-.78,1.07-.19a40.9,40.9,0,0,1,3,15.21c.14,15.6-7.46,21.28-10.34,23.38a14.34,14.34,0,0,0,2.2-.12c11.35-2.4,21-13.87,25.3-23.39C372.54,104.94,359.43,85.46,356.66,81.34Z"/><path class="cls-2" d="M723.7,74.74a48.82,48.82,0,0,1,60.24,0"/><path class="cls-2" d="M712.53,60a69.27,69.27,0,0,1,82.58,0"/><path class="cls-1" d="M111.05,145.91a30.37,30.37,0,0,1-13.41-10.8,28.25,28.25,0,0,1-4.75-16.24V117a2.06,2.06,0,0,1,.55-1.52,2.08,2.08,0,0,1,1.52-.55h21.32a1.9,1.9,0,0,1,2.07,2.07v.82q0,3.86,4.06,6.81t10.8,3q5.08,0,7.29-2.13a6.47,6.47,0,0,0,2.2-4.75,4.9,4.9,0,0,0-2.75-4.54,58.58,58.58,0,0,0-10-3.71l-4-1.11a73.64,73.64,0,0,1-22.85-11q-9.21-6.89-9.22-20A26.07,26.07,0,0,1,98.53,65,30,30,0,0,1,111.4,54.75a45.51,45.51,0,0,1,18.37-3.58,46.37,46.37,0,0,1,19.47,4A33,33,0,0,1,163,66.45a28.63,28.63,0,0,1,5,16.65v1.24A1.9,1.9,0,0,1,166,86.4H144.63a2,2,0,0,1-1.51-.55,2,2,0,0,1-.56-1.51V84.2a10,10,0,0,0-3.71-7.5q-3.72-3.37-10-3.37a11.81,11.81,0,0,0-6.94,1.79,5.71,5.71,0,0,0-2.55,4.95,5.51,5.51,0,0,0,1.86,4.2,19.12,19.12,0,0,0,5.71,3.3q3.85,1.59,11.83,4.06,1.11.41,9.7,3a29.83,29.83,0,0,1,14.38,9.22A23.85,23.85,0,0,1,168.57,120a27,27,0,0,1-4.68,15.9,29.75,29.75,0,0,1-13.07,10.25,49.62,49.62,0,0,1-19.54,3.58A50.12,50.12,0,0,1,111.05,145.91Z"/><path class="cls-1" d="M278.38,82.68q6,6.75,6.05,19v44.86a2.06,2.06,0,0,1-.55,1.51,2,2,0,0,1-1.51.55H260.62a1.9,1.9,0,0,1-2.06-2.06V107.31a10.57,10.57,0,0,0-2-6.67,6.27,6.27,0,0,0-5.16-2.54,6.57,6.57,0,0,0-5.37,2.54,10.25,10.25,0,0,0-2.07,6.67v39.22a1.89,1.89,0,0,1-2.06,2.06H220.17a1.9,1.9,0,0,1-2.06-2.06V107.31a10.06,10.06,0,0,0-2.14-6.67,6.91,6.91,0,0,0-5.57-2.54,7.06,7.06,0,0,0-5,1.85,8.7,8.7,0,0,0-2.55,5,1.92,1.92,0,0,0-.14.82v40.73a1.9,1.9,0,0,1-2.06,2.06H178.89a1.9,1.9,0,0,1-2.06-2.06V79.11A1.9,1.9,0,0,1,178.89,77h21.74a1.9,1.9,0,0,1,2.06,2.07V86c0,.36.1.55.28.55s.37-.14.55-.42Q208.76,76,221.13,75.94a23.14,23.14,0,0,1,12.32,3.24,20.52,20.52,0,0,1,8.05,9.28c.27.46.55.42.82-.13A20.41,20.41,0,0,1,250,79a21,21,0,0,1,11.49-3.1Q272.33,75.94,278.38,82.68Z"/><path class="cls-1" d="M376.21,148a2,2,0,0,1-.55-1.51V54.34a1.92,1.92,0,0,1,2.06-2.07h21.74a1.92,1.92,0,0,1,2.06,2.07V93.83a.54.54,0,0,0,.28.55c.18.09.37,0,.55-.27l11.7-15.83A2.78,2.78,0,0,1,416.52,77h24.77a2.21,2.21,0,0,1,1.31.35,1.06,1.06,0,0,1,.48.89,2.51,2.51,0,0,1-.41,1.24l-17.75,23.94a.88.88,0,0,0,0,1l20.22,41.7.28,1.1c0,.92-.6,1.37-1.79,1.37h-22.7a2.48,2.48,0,0,1-2.48-1.65L407.3,120.52a.65.65,0,0,0-.48-.34.38.38,0,0,0-.48.21l-4.54,7.7a2.08,2.08,0,0,0-.28.83v17.61a1.9,1.9,0,0,1-2.06,2.06H377.72A2,2,0,0,1,376.21,148Z"/><path class="cls-1" d="M512.29,113.92a33.44,33.44,0,0,1-.14,3.44c0,1.29-.68,1.93-2.06,1.93H468.81a.48.48,0,0,0-.55.55,5.41,5.41,0,0,0,1.1,2.89,10.41,10.41,0,0,0,4.88,3.92,19.14,19.14,0,0,0,7.92,1.58,20.94,20.94,0,0,0,6.88-1.1A14.76,14.76,0,0,0,494.4,124a2.25,2.25,0,0,1,1.38-.55,1.72,1.72,0,0,1,1.51.83l10.46,13.35a2.34,2.34,0,0,1,.55,1.51,1.7,1.7,0,0,1-.69,1.38,29.72,29.72,0,0,1-12,6.94,50.5,50.5,0,0,1-15.41,2.28q-12.8,0-21.88-5.37a31.23,31.23,0,0,1-13.21-15.27,39.13,39.13,0,0,1-3-15.42,44.6,44.6,0,0,1,2.47-15.41,32.59,32.59,0,0,1,12.25-16.37,34.38,34.38,0,0,1,20.09-5.92,33.27,33.27,0,0,1,16.3,4.13,35.43,35.43,0,0,1,12.39,11.35,39.32,39.32,0,0,1,6.26,16.31A46.64,46.64,0,0,1,512.29,113.92ZM469,103.6l-.55,1.51a.5.5,0,0,0,.13.62.93.93,0,0,0,.55.21h15.69a.48.48,0,0,0,.55-.55,6.65,6.65,0,0,0-.41-1.79,6.83,6.83,0,0,0-2.82-4.06,9.28,9.28,0,0,0-5.3-1.44Q471.15,98.1,469,103.6Z"/><path class="cls-1" d="M593.47,52.83a2,2,0,0,1,.55,1.51V72.5A1.9,1.9,0,0,1,592,74.57H568.84a.61.61,0,0,0-.69.68v71.28a1.9,1.9,0,0,1-2.06,2.06H544.35a1.9,1.9,0,0,1-2.06-2.06V75.25a.61.61,0,0,0-.69-.68H519.17a1.92,1.92,0,0,1-2.07-2.07V54.34a1.93,1.93,0,0,1,2.07-2.07H592A2,2,0,0,1,593.47,52.83Z"/><path class="cls-1" d="M640.39,77.87a2.31,2.31,0,0,1,1,2.61l-3.31,21.19q-.13,1.11-.75,1.38a2.76,2.76,0,0,1-1.72,0,20.36,20.36,0,0,0-4.4-.55,17.44,17.44,0,0,0-3.86.41,12.6,12.6,0,0,0-6.12,3,7.79,7.79,0,0,0-2.55,6.12v34.54a1.9,1.9,0,0,1-2.06,2.06H594.85a1.9,1.9,0,0,1-2.07-2.06V79.11A1.9,1.9,0,0,1,594.85,77h21.74a1.9,1.9,0,0,1,2.06,2.07v3.3a.55.55,0,0,0,.28.55.27.27,0,0,0,.41-.14A16.46,16.46,0,0,1,633,76.08,13.5,13.5,0,0,1,640.39,77.87Z"/><path class="cls-1" d="M694.47,79.11a30.33,30.33,0,0,1,12.38,8.67,18.43,18.43,0,0,1,4.55,12v46.78a1.9,1.9,0,0,1-2.07,2.06H687.59a1.9,1.9,0,0,1-2.06-2.06v-4.82c0-.36-.07-.57-.21-.61s-.3.06-.48.34a14.48,14.48,0,0,1-6.47,6.26,25.15,25.15,0,0,1-10.87,2q-11.28,0-17.75-5.16t-6.47-15.07q0-10.45,7.36-16.1t21.4-5.64h12.8a.61.61,0,0,0,.69-.69v-2.48a5.85,5.85,0,0,0-2.14-4.68,8.6,8.6,0,0,0-5.71-1.78,11.07,11.07,0,0,0-4.4.82,5.67,5.67,0,0,0-2.75,2.2,4.13,4.13,0,0,1-1,1.31,1.72,1.72,0,0,1-1.31.21L646,99.88c-1.29-.18-1.93-.73-1.93-1.65A19.6,19.6,0,0,1,649.06,87a30,30,0,0,1,11.77-8,43.76,43.76,0,0,1,16.44-3A45.55,45.55,0,0,1,694.47,79.11Zm-11.76,50.36a7.8,7.8,0,0,0,2.82-6.33v-1.79a.61.61,0,0,0-.69-.69H678q-8.67,0-8.67,5.64a5.26,5.26,0,0,0,1.58,4,6.42,6.42,0,0,0,4.61,1.52A11,11,0,0,0,682.71,129.47Z"/><path class="cls-1" d="M734.37,144a32.84,32.84,0,0,1-12.66-15.9,45.71,45.71,0,0,1,0-31.23,31.31,31.31,0,0,1,12.66-15.35,39.8,39.8,0,0,1,41.08.28q9,5.85,12.17,14.65a19.87,19.87,0,0,1,1.24,5.23v.42c0,.91-.6,1.51-1.79,1.79l-21.32,3.43h-.42a1.71,1.71,0,0,1-1.92-1.78l-.55-1.93a7.23,7.23,0,0,0-3-3.92,9,9,0,0,0-5.3-1.58,8.05,8.05,0,0,0-7.84,5c-1.1,2.29-1.65,5.46-1.65,9.49a26.07,26.07,0,0,0,1.51,9.5q2.34,5.5,8,5.5,6.06,0,8.26-6.33l.13-.55q.42-2.34,2.34-1.92l21.47,3.57c1.19.28,1.79.92,1.79,1.93a15.6,15.6,0,0,1-1,4.54,28.93,28.93,0,0,1-12.45,15.48,38.35,38.35,0,0,1-20.43,5.44A36.24,36.24,0,0,1,734.37,144Z"/><path class="cls-1" d="M863.86,113.92a33.44,33.44,0,0,1-.14,3.44c0,1.29-.69,1.93-2.07,1.93H820.38a.49.49,0,0,0-.56.55,5.44,5.44,0,0,0,1.11,2.89,10.31,10.31,0,0,0,4.88,3.92,19.13,19.13,0,0,0,7.91,1.58,20.9,20.9,0,0,0,6.88-1.1A14.8,14.8,0,0,0,846,124a2.23,2.23,0,0,1,1.37-.55,1.74,1.74,0,0,1,1.52.83l10.46,13.35a2.4,2.4,0,0,1,.55,1.51,1.7,1.7,0,0,1-.69,1.38,29.72,29.72,0,0,1-12,6.94,50.5,50.5,0,0,1-15.41,2.28q-12.81,0-21.88-5.37a31.18,31.18,0,0,1-13.21-15.27,39.13,39.13,0,0,1-3-15.42,44.6,44.6,0,0,1,2.48-15.41A32.57,32.57,0,0,1,808.4,81.86a34.42,34.42,0,0,1,20.09-5.92,33.31,33.31,0,0,1,16.31,4.13,35.32,35.32,0,0,1,12.38,11.35,39,39,0,0,1,6.26,16.31A45,45,0,0,1,863.86,113.92ZM820.51,103.6l-.55,1.51a.5.5,0,0,0,.14.62.9.9,0,0,0,.55.21h15.69a.49.49,0,0,0,.55-.55,6.39,6.39,0,0,0-.42-1.79,6.83,6.83,0,0,0-2.82-4.06,9.23,9.23,0,0,0-5.29-1.44Q822.71,98.1,820.51,103.6Z"/></g></svg>