<svg xmlns="http://www.w3.org/2000/svg" viewBox="0 0 943.72 196.09"><defs><style>.cls-1{font-size:137.6px;font-family:Barlow-Black, Barlow;font-weight:800;}.cls-1,.cls-7{fill:#332b2a;}.cls-2{fill:#fff;}.cls-3{letter-spacing:-0.06em;}.cls-4{letter-spacing:-0.06em;}.cls-5{letter-spacing:-0.01em;}.cls-6{letter-spacing:-0.01em;}.cls-8{fill:none;stroke:#332b2a;stroke-linejoin:bevel;stroke-width:11.2px;}</style></defs><g id="Layer_5" data-name="Layer 5"><text class="cls-1" transform="translate(89.45 148.6)">Sm<tspan class="cls-2" x="199.1" y="0" xml:space="preserve">   </tspan><tspan class="cls-3" x="281.66" y="0">k</tspan><tspan x="349.22" y="0">e</tspan><tspan class="cls-4" x="425.18" y="0">T</tspan><tspan class="cls-5" x="498.79" y="0">r</tspan><tspan x="552.18" y="0">a</tspan><tspan class="cls-6" x="626.48" y="0">c</tspan><tspan x="700.79" y="0">e</tspan></text><path class="cls-7" d="M356.66,81.34c-10.07-15-37.81-24.65-37.81-24.65s-.75,11.36-3.73,17.18c-3.51,6.85-5.8,9.89-11.83,17.16-4.15,5-13.41,17.71-11.22,29.89,2.22,12.34,13,22,22.14,25.46.91.35,2.38.83,4.25,1.33a5.26,5.26,0,0,1-.35-.52,39.4,39.4,0,0,1-5.56-28.33c2.56-13.58,10.81-19.62,13.42-21.27.24-.15.88.15.76.46-3.29,8.27-1.14,20.45,4,22.89,6.21,2.94,10-2.38,11.12-9.65.1-.64.83-.78,1.07-.19a40.9,40.9,0,0,1,3,15.21c.14,15.6-7.46,21.28-10.34,23.38a14.34,14.34,0,0,0,2.2-.12c11.35-2.4,21-13.87,25.3-23.39C372.54,104.94,359.43,85.46,356.66,81.34Z"/><path class="cls-8" d="M723.7,74.74a48.82,48.82,0,0,1,60.24,0"/><path class="cls-8" d="M712.53,60a69.27,69.27,0,0,1,82.58,0"/></g></svg>