<svg id="Layer_3" data-name="Layer 3" xmlns="http://www.w3.org/2000/svg" viewBox="0 0 906.17 906.17"><defs><style>.cls-1{fill:#332f2a;}.cls-2,.cls-3{fill:none;stroke:#332f2a;}.cls-2{stroke-linejoin:bevel;stroke-width:22.4px;}.cls-3{stroke-linecap:square;stroke-miterlimit:10;stroke-width:16px;}</style></defs><path class="cls-1" d="M481.52,512.66c-11.08-16.45-41.58-27.11-41.58-27.11s-.83,12.49-4.11,18.89c-3.85,7.53-6.38,10.88-13,18.88-4.57,5.51-14.75,19.47-12.34,32.87,2.44,13.57,14.26,24.24,24.34,28,1,.38,2.63.92,4.68,1.46-.14-.19-.27-.38-.39-.56A43.42,43.42,0,0,1,433,553.93c2.81-14.95,11.89-21.58,14.76-23.4.27-.17,1,.17.84.5-3.62,9.1-1.26,22.5,4.39,25.18,6.82,3.24,11-2.61,12.22-10.62.11-.7.91-.85,1.18-.21a45.17,45.17,0,0,1,3.26,16.73c.15,17.16-8.21,23.42-11.37,25.73a16.51,16.51,0,0,0,2.41-.15c12.49-2.64,23.14-15.25,27.82-25.72C499,538.61,484.57,517.19,481.52,512.66Z"/><path class="cls-1" d="M426.34,473.23a35.17,35.17,0,0,1-6,1.12,35.6,35.6,0,0,1-6.2.14,38.94,38.94,0,0,1-6.23-.88,38.45,38.45,0,0,1-6.09-1.84,48.14,48.14,0,0,1-11.24-6.18,56.87,56.87,0,0,1-9.41-8.81l1-8.46a106.05,106.05,0,0,1,33.92-22.49,96,96,0,0,1,9.88-3.42,98.87,98.87,0,0,1,10.26-2.31,94.38,94.38,0,0,1,21.12-1.1c1.77.08,3.53.33,5.29.49s3.51.46,5.25.8l2.6.49c.87.18,1.73.39,2.59.58,1.73.36,3.42.87,5.12,1.34a100.69,100.69,0,0,1,9.91,3.56,99.43,99.43,0,0,1,9.4,4.57,107.26,107.26,0,0,1,17,11.71A113.36,113.36,0,0,1,529,457l-12.07,9.44a165.71,165.71,0,0,0-14.09-22.73A123.59,123.59,0,0,0,484.53,424a103.32,103.32,0,0,0-47.81-23.6A93.82,93.82,0,0,0,410.2,399a108.53,108.53,0,0,0-25.68,5.54,140.14,140.14,0,0,0-23.77,10.76,150.1,150.1,0,0,0-21.32,14.52L324.5,416.65c.88-1.55,1.69-2.87,2.55-4.22s1.71-2.62,2.59-3.9q2.66-3.84,5.49-7.46a172,172,0,0,1,12.12-13.9,165.18,165.18,0,0,1,13.63-12.52A152.39,152.39,0,0,1,376,363.78a135,135,0,0,1,34.16-15.35,128.91,128.91,0,0,1,18.39-3.93q4.65-.64,9.33-1c3.11-.26,6.22-.34,9.37-.35a128.36,128.36,0,0,1,36.89,5.43,143.84,143.84,0,0,1,33.37,14.9,165.66,165.66,0,0,1,28.38,21.83A169.82,169.82,0,0,1,558,398.25a101.91,101.91,0,0,1,10.35,14.36l-1.82,1.31c-2-2-4.12-3.9-6.3-5.73s-4.37-3.65-6.63-5.38c-4.51-3.46-9.08-6.81-13.82-9.86A194.18,194.18,0,0,0,510.49,377a149.78,149.78,0,0,0-31-9.74,122.94,122.94,0,0,0-31.55-2,133,133,0,0,0-15.65,2.06,138.56,138.56,0,0,0-15.22,3.9,142.9,142.9,0,0,0-14.65,5.66,146.46,146.46,0,0,0-14,7.29,153.55,153.55,0,0,0-25.59,19,150.88,150.88,0,0,0-11.28,11.48q-2.67,3-5.13,6.15c-.82,1.05-1.61,2.1-2.38,3.15s-1.51,2.13-2.11,3.05L327,413.81a134.83,134.83,0,0,1,53.83-23.4A127.64,127.64,0,0,1,410,388.27a130.79,130.79,0,0,1,14.43,1.43c2.38.39,4.75.79,7.09,1.32s4.68,1.06,7,1.68a144.57,144.57,0,0,1,26.65,10.24c4.23,2.15,8.39,4.46,12.4,7s7.95,5.18,11.79,8a201.41,201.41,0,0,1,21.71,18.59A178.31,178.31,0,0,1,530,458.3l-12.08,9.45a135.84,135.84,0,0,0-29.47-19.42c-10.43-5-21.34-8.61-32.61-9.68a84.26,84.26,0,0,0-25.48,1.27c-2.81.58-5.62,1.26-8.4,2.11a111.75,111.75,0,0,0-31.71,15.83l1-8.45a49.57,49.57,0,0,0,6.24,8.29,43.21,43.21,0,0,0,8,6.77,39.89,39.89,0,0,0,9.64,4.63,40.18,40.18,0,0,0,11,1.9Z"/><path class="cls-2" d="M282,360.39c20.34-21.81,81.66-81.66,169.75-81.41,87.42.25,148.25,59.54,168.65,81.41"/><polyline class="cls-3" points="670.84 320.34 605.47 268.74 605.47 171.87 548.42 172.32 548.08 223.44 449.25 145.43 227.67 320.34"/><path class="cls-1" d="M46.9,757.75a33.92,33.92,0,0,1-15-12.06,31.59,31.59,0,0,1-5.3-18.13v-2.15a2.26,2.26,0,0,1,.62-1.69,2.29,2.29,0,0,1,1.68-.61H52.73a2.13,2.13,0,0,1,2.31,2.3v.93q0,4.29,4.53,7.6t12.06,3.3c3.78,0,6.5-.79,8.14-2.38a7.26,7.26,0,0,0,2.45-5.3,5.45,5.45,0,0,0-3.07-5.07,66.52,66.52,0,0,0-11.21-4.15l-4.46-1.22Q48.29,714.5,38,706.83T27.7,684.56a29.1,29.1,0,0,1,5.22-17.13A33.35,33.35,0,0,1,47.28,656a50.58,50.58,0,0,1,20.51-4,51.71,51.71,0,0,1,21.73,4.46A36.74,36.74,0,0,1,104.88,669a32,32,0,0,1,5.61,18.59V689a2.13,2.13,0,0,1-2.31,2.3H84.37a2.11,2.11,0,0,1-2.3-2.3v-.15c0-3.08-1.38-5.86-4.15-8.37s-6.5-3.77-11.21-3.77a13.31,13.31,0,0,0-7.76,2,6.39,6.39,0,0,0-2.84,5.53,6.12,6.12,0,0,0,2.08,4.68,21.28,21.28,0,0,0,6.37,3.69q4.31,1.77,13.21,4.53,1.23.47,10.83,3.3a33.36,33.36,0,0,1,16.05,10.29,26.65,26.65,0,0,1,6.45,18,30.11,30.11,0,0,1-5.22,17.74A33.27,33.27,0,0,1,91.29,758a55.34,55.34,0,0,1-21.81,4Q56.57,762,46.9,757.75Z"/><path class="cls-1" d="M233.67,687.17q6.77,7.53,6.76,21.19v50.08a2.32,2.32,0,0,1-.61,1.69,2.29,2.29,0,0,1-1.69.61H213.86a2.13,2.13,0,0,1-2.31-2.3V714.66a11.77,11.77,0,0,0-2.22-7.45,7,7,0,0,0-5.76-2.84,7.35,7.35,0,0,0-6,2.84,11.46,11.46,0,0,0-2.31,7.45v43.78a2.11,2.11,0,0,1-2.3,2.3H168.7a2.11,2.11,0,0,1-2.3-2.3V714.66a11.22,11.22,0,0,0-2.39-7.45,7.73,7.73,0,0,0-6.22-2.84,7.9,7.9,0,0,0-5.6,2.07,9.62,9.62,0,0,0-2.84,5.61,2,2,0,0,0-.16.92v45.47a2.11,2.11,0,0,1-2.3,2.3H122.62a2.11,2.11,0,0,1-2.3-2.3V683.17a2.29,2.29,0,0,1,.61-1.69,2.32,2.32,0,0,1,1.69-.61h24.27a2.33,2.33,0,0,1,1.69.61,2.29,2.29,0,0,1,.61,1.69v7.68c0,.41.1.62.31.62s.41-.16.61-.46q5.83-11.37,19.66-11.37a25.81,25.81,0,0,1,13.75,3.61,22.91,22.91,0,0,1,9,10.37c.3.51.61.46.92-.15A22.81,22.81,0,0,1,202,683.1a23.41,23.41,0,0,1,12.83-3.46Q226.92,679.64,233.67,687.17Z"/><path class="cls-1" d="M263.24,754.14A36.94,36.94,0,0,1,250,732.94a46,46,0,0,1-1.53-12.29A47.49,47.49,0,0,1,250.26,707a36.74,36.74,0,0,1,13.59-20q9.91-7.31,24.19-7.3t24,7.3a37,37,0,0,1,13.44,19.73,49.5,49.5,0,0,1,1.85,13.67A56.46,56.46,0,0,1,326.14,732q-3.22,13.82-13.29,21.89t-25,8.06Q273.3,762,263.24,754.14Zm31.1-19.59a14.71,14.71,0,0,0,3.38-7.14,33.85,33.85,0,0,0,.62-6.91,33.35,33.35,0,0,0-.77-7.07q-2.31-9.06-9.68-9.06-7.68,0-9.68,9.06a26.17,26.17,0,0,0-.76,7.07,33.91,33.91,0,0,0,.61,6.91q2.31,9.84,9.83,9.83A8.34,8.34,0,0,0,294.34,734.55Z"/><path class="cls-1" d="M336.43,760.13a2.28,2.28,0,0,1-.62-1.69V655.53a2.14,2.14,0,0,1,2.31-2.31h24.27a2.13,2.13,0,0,1,2.3,2.31v44.08a.6.6,0,0,0,.31.61c.2.11.41,0,.61-.3l13.06-17.67a3.09,3.09,0,0,1,2.76-1.38h27.65a2.53,2.53,0,0,1,1.46.38,1.18,1.18,0,0,1,.54,1,2.81,2.81,0,0,1-.46,1.38L390.8,710.36a1,1,0,0,0,0,1.08L413.38,758l.31,1.23c0,1-.67,1.53-2,1.53H386.35a2.77,2.77,0,0,1-2.77-1.84l-12.44-29.49a.73.73,0,0,0-.54-.39.44.44,0,0,0-.53.23l-5.07,8.6a2.34,2.34,0,0,0-.31.93v19.66a2.32,2.32,0,0,1-.61,1.69,2.29,2.29,0,0,1-1.69.61H338.12A2.28,2.28,0,0,1,336.43,760.13Z"/><path class="cls-1" d="M488.34,722a34.54,34.54,0,0,1-.16,3.84c0,1.44-.76,2.15-2.3,2.15H439.8a.54.54,0,0,0-.61.62,6,6,0,0,0,1.23,3.22,11.43,11.43,0,0,0,5.45,4.38A21.19,21.19,0,0,0,454.7,738a23.25,23.25,0,0,0,7.68-1.23,16.75,16.75,0,0,0,6-3.53,2.45,2.45,0,0,1,1.54-.62,1.94,1.94,0,0,1,1.69.92l11.67,14.9a2.66,2.66,0,0,1,.61,1.69,1.89,1.89,0,0,1-.76,1.54,33.32,33.32,0,0,1-13.37,7.76,56.54,56.54,0,0,1-17.2,2.53q-14.28,0-24.42-6a34.81,34.81,0,0,1-14.75-17.05,43.72,43.72,0,0,1-3.38-17.2,49.59,49.59,0,0,1,2.77-17.21,36.33,36.33,0,0,1,13.67-18.27q9.53-6.62,22.42-6.61a37.13,37.13,0,0,1,18.2,4.61,39.47,39.47,0,0,1,13.83,12.67,43.9,43.9,0,0,1,7,18.2A52.42,52.42,0,0,1,488.34,722ZM440,710.51l-.61,1.69a.57.57,0,0,0,.15.69,1,1,0,0,0,.62.24h17.51a.54.54,0,0,0,.61-.62,7.27,7.27,0,0,0-.46-2,7.62,7.62,0,0,0-3.15-4.53,10.35,10.35,0,0,0-5.91-1.61Q442.41,704.37,440,710.51Z"/><path class="cls-1" d="M579,653.84a2.28,2.28,0,0,1,.61,1.69V675.8a2.11,2.11,0,0,1-2.3,2.3h-25.8a.68.68,0,0,0-.77.77v79.57a2.13,2.13,0,0,1-2.31,2.3H524.13a2.13,2.13,0,0,1-2.31-2.3V678.87a.68.68,0,0,0-.77-.77H496a2.13,2.13,0,0,1-2.31-2.3V655.53a2.14,2.14,0,0,1,2.31-2.31h81.25A2.28,2.28,0,0,1,579,653.84Z"/><path class="cls-1" d="M631.34,681.79c.92.51,1.27,1.49,1.07,2.92l-3.69,23.65c-.1.82-.38,1.34-.84,1.54a3,3,0,0,1-1.92,0,22.87,22.87,0,0,0-4.92-.61,19,19,0,0,0-4.3.46,14,14,0,0,0-6.83,3.3,8.68,8.68,0,0,0-2.84,6.83v38.56a2.13,2.13,0,0,1-2.31,2.3H580.49a2.11,2.11,0,0,1-2.3-2.3V683.17a2.29,2.29,0,0,1,.61-1.69,2.33,2.33,0,0,1,1.69-.61h24.27a2.13,2.13,0,0,1,2.31,2.3v3.69a.61.61,0,0,0,.3.61.3.3,0,0,0,.47-.15,18.32,18.32,0,0,1,15.2-7.53A15.1,15.1,0,0,1,631.34,681.79Z"/><path class="cls-1" d="M691.7,683.17a34,34,0,0,1,13.82,9.68,20.57,20.57,0,0,1,5.07,13.36v52.23a2.11,2.11,0,0,1-2.3,2.3H684a2.11,2.11,0,0,1-2.3-2.3v-5.38c0-.41-.08-.64-.23-.69s-.34.08-.54.38a16.08,16.08,0,0,1-7.22,7Q669.13,762,661.59,762q-12.58,0-19.81-5.76t-7.22-16.82q0-11.67,8.22-18t23.88-6.3H681a.68.68,0,0,0,.77-.77v-2.76a6.5,6.5,0,0,0-2.38-5.22,9.63,9.63,0,0,0-6.38-2,12.43,12.43,0,0,0-4.91.92,6.4,6.4,0,0,0-3.08,2.46,4.62,4.62,0,0,1-1.15,1.46,1.9,1.9,0,0,1-1.46.23l-24.73-3.07c-1.43-.21-2.15-.82-2.15-1.85A21.88,21.88,0,0,1,641,691.93a33.63,33.63,0,0,1,13.13-9,48.89,48.89,0,0,1,18.36-3.3A51,51,0,0,1,691.7,683.17Zm-13.13,56.22a8.68,8.68,0,0,0,3.15-7.06v-2a.68.68,0,0,0-.77-.77h-7.68q-9.67,0-9.68,6.3a5.86,5.86,0,0,0,1.77,4.45A7.13,7.13,0,0,0,670.5,742,12.23,12.23,0,0,0,678.57,739.39Z"/><path class="cls-1" d="M736.24,755.6a36.66,36.66,0,0,1-14.13-17.75,51,51,0,0,1,0-34.86,35,35,0,0,1,14.13-17.13,44.41,44.41,0,0,1,45.85.31q10.06,6.52,13.6,16.36a22.56,22.56,0,0,1,1.38,5.83v.46c0,1-.67,1.69-2,2l-23.81,3.84h-.46a1.92,1.92,0,0,1-2.15-2l-.61-2.15a8,8,0,0,0-3.3-4.37,10.09,10.09,0,0,0-5.92-1.77,9,9,0,0,0-8.75,5.53q-1.85,3.84-1.85,10.6a29.26,29.26,0,0,0,1.69,10.6q2.61,6.14,8.91,6.14,6.76,0,9.22-7.06l.15-.62c.31-1.74,1.18-2.46,2.61-2.15l24,4c1.33.31,2,1,2,2.15a17.42,17.42,0,0,1-1.07,5.07,32.39,32.39,0,0,1-13.9,17.28A42.76,42.76,0,0,1,759,762Q745.92,762,736.24,755.6Z"/><path class="cls-1" d="M880.78,722a37.73,37.73,0,0,1-.15,3.84c0,1.44-.77,2.15-2.3,2.15H832.25a.55.55,0,0,0-.62.62,6,6,0,0,0,1.23,3.22,11.43,11.43,0,0,0,5.45,4.38,21.23,21.23,0,0,0,8.83,1.77,23.16,23.16,0,0,0,7.68-1.23,16.66,16.66,0,0,0,6-3.53,2.5,2.5,0,0,1,1.54-.62,1.93,1.93,0,0,1,1.69.92l11.67,14.9a2.67,2.67,0,0,1,.62,1.69,1.9,1.9,0,0,1-.77,1.54,33.35,33.35,0,0,1-13.36,7.76A56.61,56.61,0,0,1,845,762q-14.28,0-24.42-6a34.79,34.79,0,0,1-14.74-17.05,43.55,43.55,0,0,1-3.38-17.2,49.83,49.83,0,0,1,2.76-17.21,36.39,36.39,0,0,1,13.67-18.27q9.52-6.62,22.43-6.61a37.16,37.16,0,0,1,18.2,4.61,39.36,39.36,0,0,1,13.82,12.67,43.63,43.63,0,0,1,7,18.2A50.76,50.76,0,0,1,880.78,722ZM832.4,710.51l-.62,1.69a.55.55,0,0,0,.16.69,1,1,0,0,0,.61.24h17.51a.55.55,0,0,0,.62-.62,10,10,0,0,0-3.61-6.53,10.36,10.36,0,0,0-5.92-1.61Q834.85,704.37,832.4,710.51Z"/></svg>