<svg xmlns="http://www.w3.org/2000/svg" xmlns:xlink="http://www.w3.org/1999/xlink" viewBox="0 0 700 700"><defs><style>.cls-1{fill:url(#linear-gradient);}.cls-2{fill:#fff;}.cls-3,.cls-4{fill:none;stroke:#fff;}.cls-3{stroke-linejoin:bevel;stroke-width:25.76px;}.cls-4{stroke-linecap:square;stroke-miterlimit:10;stroke-width:18.4px;}</style><linearGradient id="linear-gradient" x1="350" y1="26.04" x2="350" y2="673.96" gradientUnits="userSpaceOnUse"><stop offset="0" stop-color="#fecd95"/><stop offset="0.5" stop-color="#f58433"/><stop offset="1" stop-color="#f15838"/></linearGradient></defs><g id="Layer_6" data-name="Layer 6"><rect class="cls-1" x="26.04" y="26.04" width="647.93" height="647.93" rx="323.96"/><path class="cls-2" d="M387.11,525.11c-12.74-18.93-47.82-31.18-47.82-31.18s-1,14.36-4.73,21.73c-4.43,8.65-7.33,12.5-14.95,21.7-5.26,6.34-17,22.4-14.19,37.81,2.8,15.6,16.4,27.88,28,32.2,1.16.43,3,1,5.38,1.68-.16-.22-.31-.44-.44-.66a49.82,49.82,0,0,1-7-35.83c3.24-17.18,13.67-24.81,17-26.9.31-.2,1.12.19,1,.57-4.15,10.46-1.44,25.87,5.05,28.95,7.85,3.73,12.7-3,14.06-12.2a.7.7,0,0,1,1.36-.24A51.77,51.77,0,0,1,373.46,582c.17,19.74-9.44,26.93-13.08,29.59a19.89,19.89,0,0,0,2.79-.17c14.35-3,26.6-17.54,32-29.57C407.19,555,390.61,530.31,387.11,525.11Z"/><path class="cls-2" d="M323.65,479.76a39.52,39.52,0,0,1-6.89,1.29,41.35,41.35,0,0,1-7.13.16,46.17,46.17,0,0,1-7.17-1c-1.19-.25-2.36-.58-3.54-.91s-2.33-.75-3.46-1.21a55,55,0,0,1-12.92-7.1,65.32,65.32,0,0,1-10.82-10.14l1.17-9.73a121.86,121.86,0,0,1,39-25.86,113.51,113.51,0,0,1,11.35-3.94,117.92,117.92,0,0,1,11.81-2.65,108.38,108.38,0,0,1,24.29-1.26c2,.08,4,.37,6.08.56s4,.53,6,.92l3,.56c1,.21,2,.45,3,.67,2,.41,3.93,1,5.89,1.53A113,113,0,0,1,405.53,431a122.86,122.86,0,0,1,19.55,13.47c3,2.53,5.91,5.18,8.67,8s5.42,5.68,7.92,8.68L427.78,472a190.88,190.88,0,0,0-16.2-26.15,142.31,142.31,0,0,0-21-22.74,118.8,118.8,0,0,0-55-27.14,107.83,107.83,0,0,0-30.5-1.53,125.44,125.44,0,0,0-29.54,6.37,160.88,160.88,0,0,0-27.33,12.37,172.41,172.41,0,0,0-24.52,16.71l-17.17-15.18c1-1.78,1.95-3.3,2.93-4.85s2-3,3-4.49c2-2.94,4.13-5.79,6.31-8.58a197.71,197.71,0,0,1,13.93-16,192.74,192.74,0,0,1,15.67-14.4,173.69,173.69,0,0,1,17.4-12.49A156,156,0,0,1,305,336.22a145.76,145.76,0,0,1,21.15-4.5c3.56-.5,7.14-.88,10.72-1.13s7.16-.38,10.79-.4a147.78,147.78,0,0,1,42.42,6.24,165.56,165.56,0,0,1,38.38,17.14,190.93,190.93,0,0,1,32.64,25.11,182.64,182.64,0,0,1,13.94,14.86A116.39,116.39,0,0,1,487,410.05l-2.09,1.5c-2.26-2.27-4.74-4.48-7.24-6.58s-5-4.2-7.63-6.19c-5.19-4-10.47-7.79-15.89-11.34a223.56,223.56,0,0,0-33.71-18.34,171.74,171.74,0,0,0-35.64-11.2,140.94,140.94,0,0,0-36.29-2.32,151.21,151.21,0,0,0-18,2.36,157.93,157.93,0,0,0-50.45,19.38,177.2,177.2,0,0,0-29.44,21.87,173.74,173.74,0,0,0-13,13.2c-2,2.31-4,4.68-5.9,7.08q-1.41,1.8-2.73,3.62c-.87,1.2-1.74,2.45-2.43,3.51l-17.17-15.17a154.9,154.9,0,0,1,61.91-26.91,147,147,0,0,1,33.51-2.47,152.94,152.94,0,0,1,16.6,1.65c2.73.44,5.46.91,8.16,1.52s5.38,1.22,8,1.94a165.05,165.05,0,0,1,30.64,11.77c4.87,2.48,9.64,5.13,14.26,8s9.14,6,13.56,9.18a234.31,234.31,0,0,1,25,21.38,206,206,0,0,1,21.75,25.06l-13.89,10.86c-2.6-2.25-5.26-4.39-8-6.46s-5.52-4-8.36-5.89a150.59,150.59,0,0,0-17.54-10,129.11,129.11,0,0,0-18.39-7.26A98.16,98.16,0,0,0,338,440a92.76,92.76,0,0,0-9.76,1.49c-3.24.66-6.47,1.44-9.66,2.41a128.5,128.5,0,0,0-36.47,18.22l1.17-9.73a57.22,57.22,0,0,0,7.18,9.55,50.15,50.15,0,0,0,9.19,7.78A45.94,45.94,0,0,0,310.74,475a47.62,47.62,0,0,0,6.15,1.52,50.34,50.34,0,0,0,6.44.67Z"/><path class="cls-3" d="M157.66,350c23.38-25.09,93.91-93.92,195.21-93.63,100.53.29,170.49,68.47,193.94,93.63"/><polyline class="cls-4" points="604.82 303.94 529.65 244.6 529.65 133.2 464.04 133.71 463.65 192.5 350 102.79 95.18 303.94"/></g></svg>