<svg xmlns="http://www.w3.org/2000/svg" viewBox="0 0 700 700"><defs><style>.cls-1{fill:#f58433;}.cls-2{fill:#726658;}.cls-3,.cls-4{fill:none;}.cls-3{stroke:#726658;stroke-linejoin:bevel;stroke-width:22.4px;}.cls-4{stroke:#f58433;stroke-linecap:square;stroke-miterlimit:10;stroke-width:16px;}</style></defs><g id="Layer_2" data-name="Layer 2"><path class="cls-1" d="M382.27,496c-11.08-16.45-41.59-27.11-41.59-27.11s-.82,12.49-4.1,18.89c-3.86,7.53-6.38,10.88-13,18.87-4.57,5.52-14.75,19.48-12.34,32.88,2.44,13.57,14.27,24.24,24.35,28a48.43,48.43,0,0,0,4.67,1.46,6.27,6.27,0,0,1-.38-.57,43.33,43.33,0,0,1-6.12-31.16c2.82-14.94,11.89-21.57,14.76-23.39.27-.17,1,.17.84.5-3.62,9.1-1.26,22.49,4.39,25.17,6.82,3.24,11-2.61,12.23-10.61a.61.61,0,0,1,1.18-.21,45,45,0,0,1,3.25,16.73c.15,17.16-8.21,23.41-11.37,25.72a16.91,16.91,0,0,0,2.42-.14c12.48-2.64,23.13-15.25,27.82-25.72C399.73,522,385.31,500.56,382.27,496Z"/><path class="cls-2" d="M327.09,456.6a35.36,35.36,0,0,1-6,1.12,36.73,36.73,0,0,1-6.21.14,40.27,40.27,0,0,1-6.23-.88,38.45,38.45,0,0,1-6.09-1.84A48.08,48.08,0,0,1,291.34,449a56.89,56.89,0,0,1-9.41-8.81l1-8.46a105.61,105.61,0,0,1,33.92-22.49,95.83,95.83,0,0,1,9.87-3.42A99.09,99.09,0,0,1,337,403.46a94.35,94.35,0,0,1,21.12-1.09c1.77.07,3.52.33,5.29.49s3.51.46,5.24.8l2.61.49c.86.18,1.72.38,2.58.58,1.74.36,3.42.87,5.12,1.34a102.31,102.31,0,0,1,9.91,3.55c3.2,1.41,6.38,2.86,9.4,4.57a106.41,106.41,0,0,1,17,11.72,113.44,113.44,0,0,1,14.43,14.48l-12.08,9.44a164.85,164.85,0,0,0-14.09-22.74,123.46,123.46,0,0,0-18.26-19.77,103.41,103.41,0,0,0-47.81-23.6A93.82,93.82,0,0,0,311,382.39a108.72,108.72,0,0,0-25.69,5.54,138.91,138.91,0,0,0-23.76,10.76,150.2,150.2,0,0,0-21.33,14.52L225.24,400c.88-1.55,1.7-2.87,2.55-4.22s1.72-2.63,2.6-3.91q2.64-3.83,5.49-7.46A173.64,173.64,0,0,1,248,370.53,170.2,170.2,0,0,1,261.62,358a152.52,152.52,0,0,1,15.13-10.87,134.72,134.72,0,0,1,34.16-15.35,125.81,125.81,0,0,1,18.38-3.93c3.1-.44,6.22-.77,9.33-1s6.23-.33,9.38-.34A128.75,128.75,0,0,1,384.89,332a144.06,144.06,0,0,1,33.37,14.91,165.55,165.55,0,0,1,28.38,21.83,169.68,169.68,0,0,1,12.12,12.92A102,102,0,0,1,469.12,396l-1.82,1.3c-2-2-4.12-3.89-6.3-5.72s-4.38-3.65-6.63-5.38c-4.52-3.46-9.08-6.81-13.82-9.86a193.8,193.8,0,0,0-29.32-15.95,149.09,149.09,0,0,0-31-9.74,122.6,122.6,0,0,0-31.56-2,133.09,133.09,0,0,0-15.64,2.06,139.31,139.31,0,0,0-15.23,3.9,142.9,142.9,0,0,0-14.65,5.66,146.3,146.3,0,0,0-14,7.29A155.16,155.16,0,0,0,252.3,398c-1.77,2-3.49,4.07-5.12,6.16-.82,1.05-1.62,2.1-2.38,3.15s-1.52,2.13-2.12,3.05l-14.93-13.19a134.95,134.95,0,0,1,53.84-23.4,128.09,128.09,0,0,1,29.14-2.15,133.27,133.27,0,0,1,14.43,1.44c2.38.38,4.75.79,7.1,1.32s4.68,1.06,7,1.68a143.07,143.07,0,0,1,26.64,10.24c4.24,2.15,8.39,4.46,12.4,7s7.95,5.19,11.79,8a202.55,202.55,0,0,1,21.72,18.58,179.08,179.08,0,0,1,18.91,21.8l-12.07,9.44a136,136,0,0,0-29.47-19.41c-10.43-5-21.35-8.61-32.62-9.69a83.16,83.16,0,0,0-17,0,81.51,81.51,0,0,0-8.48,1.29c-2.82.57-5.62,1.26-8.4,2.1A111.78,111.78,0,0,0,291,441.23l1-8.46a49.3,49.3,0,0,0,6.25,8.3,43.33,43.33,0,0,0,8,6.77,39.32,39.32,0,0,0,9.64,4.62,42.25,42.25,0,0,0,5.35,1.33,43,43,0,0,0,5.6.58Z"/><path class="cls-3" d="M182.75,343.76c20.33-21.81,81.66-81.66,169.74-81.41,87.42.24,148.26,59.53,168.65,81.41"/><polyline class="cls-4" points="571.58 303.71 506.21 252.11 506.21 155.24 449.16 155.68 448.82 206.81 350 128.8 128.42 303.71"/></g></svg>