<svg id="Layer_3" data-name="Layer 3" xmlns="http://www.w3.org/2000/svg" viewBox="0 0 700 700"><defs><style>.cls-1{fill:#332f2a;}.cls-2,.cls-3{fill:none;stroke:#332f2a;}.cls-2{stroke-linejoin:bevel;stroke-width:31.36px;}.cls-3{stroke-linecap:square;stroke-miterlimit:10;stroke-width:22.4px;}</style></defs><path class="cls-1" d="M394.34,573.76c-15.51-23-58.21-38-58.21-38s-1.16,17.48-5.75,26.45c-5.4,10.53-8.93,15.22-18.21,26.42-6.4,7.72-20.65,27.27-17.28,46,3.42,19,20,33.94,34.09,39.21,1.41.52,3.67,1.28,6.54,2l-.54-.79a60.79,60.79,0,0,1-8.56-43.63c3.95-20.92,16.65-30.21,20.67-32.75.37-.23,1.36.23,1.17.7-5.06,12.73-1.76,31.49,6.15,35.24,9.55,4.54,15.45-3.65,17.12-14.85.14-1,1.27-1.2,1.64-.3A62.87,62.87,0,0,1,377.73,643c.21,24-11.49,32.78-15.92,36a23.24,23.24,0,0,0,3.39-.19c17.47-3.7,32.39-21.36,38.95-36C418.8,610.09,398.61,580.1,394.34,573.76Z"/><path class="cls-1" d="M317.09,518.55A51.22,51.22,0,0,1,300,520.32a55.3,55.3,0,0,1-8.72-1.23c-1.45-.3-2.88-.71-4.31-1.1s-2.84-.92-4.22-1.47A67.44,67.44,0,0,1,267,507.87a79.35,79.35,0,0,1-13.17-12.35l1.42-11.84a148.35,148.35,0,0,1,47.49-31.48,135.21,135.21,0,0,1,13.83-4.79A139,139,0,0,1,331,444.17c2.43-.41,4.87-.77,7.33-1l3.69-.31c1.23-.12,2.46-.22,3.7-.25,2.47-.1,4.94-.22,7.42-.17,1.24,0,2.48,0,3.72,0l3.71.18c1.24.05,2.47.17,3.7.3l3.7.38,3.68.53c1.23.17,2.45.35,3.67.59l3.65.69c1.21.25,2.41.54,3.62.81,2.42.5,4.78,1.21,7.16,1.87a135.74,135.74,0,0,1,27,11.38c4.22,2.4,8.39,4.88,12.34,7.65s7.81,5.65,11.46,8.76,7.2,6.3,10.56,9.69,6.59,6.92,9.63,10.57l-16.9,13.22a232.18,232.18,0,0,0-19.73-31.83,173.28,173.28,0,0,0-25.57-27.69,144.84,144.84,0,0,0-66.93-33,131.72,131.72,0,0,0-37.14-1.86,152.8,152.8,0,0,0-35.95,7.76,195.84,195.84,0,0,0-33.27,15.06c-5.29,3-10.46,6.18-15.45,9.59S200,454,195.41,457.82l-20.9-18.47c1.23-2.18,2.37-4,3.57-5.91s2.4-3.68,3.64-5.47q3.69-5.37,7.68-10.44a241.09,241.09,0,0,1,17-19.46,233.24,233.24,0,0,1,19.08-17.53,214.05,214.05,0,0,1,21.17-15.21,186.28,186.28,0,0,1,99.75-28.86,180,180,0,0,1,51.66,7.6,186.85,186.85,0,0,1,24.15,9,207.57,207.57,0,0,1,22.56,11.86,231.71,231.71,0,0,1,39.74,30.56,219.47,219.47,0,0,1,17,18.09,142.77,142.77,0,0,1,14.49,20.1l-2.54,1.83c-2.76-2.76-5.77-5.46-8.82-8s-6.13-5.11-9.29-7.53c-6.32-4.85-12.75-9.48-19.35-13.8a270.52,270.52,0,0,0-41-22.33,220.1,220.1,0,0,0-21.47-8.06c-3.61-1.15-7.26-2.19-10.91-3.1s-7.32-1.78-11-2.48a171.85,171.85,0,0,0-44.18-2.82,185.55,185.55,0,0,0-43.21,8.37A198.35,198.35,0,0,0,264,393.84a217.39,217.39,0,0,0-51.63,42.7c-2.48,2.81-4.88,5.7-7.17,8.62-1.15,1.46-2.26,2.94-3.33,4.41s-2.12,3-3,4.27L178,435.37a187.19,187.19,0,0,1,36-20.59q4.74-2.07,9.58-3.86c3.23-1.19,6.48-2.33,9.77-3.32a197.23,197.23,0,0,1,20-5,178.93,178.93,0,0,1,40.8-3,183.9,183.9,0,0,1,20.21,2c3.33.53,6.65,1.11,9.93,1.85s6.55,1.47,9.79,2.35a202,202,0,0,1,37.3,14.33,245.38,245.38,0,0,1,33.87,21,283.15,283.15,0,0,1,30.4,26,251.67,251.67,0,0,1,26.48,30.52l-16.91,13.22c-3.16-2.75-6.41-5.35-9.72-7.87s-6.73-4.89-10.18-7.17A185,185,0,0,0,404,483.7c-14.61-7-29.89-12.06-45.67-13.56a116.65,116.65,0,0,0-23.78,0,114.39,114.39,0,0,0-11.88,1.82c-3.94.8-7.87,1.76-11.76,2.94A156.4,156.4,0,0,0,266.52,497l1.42-11.84a69.34,69.34,0,0,0,8.75,11.62,60.93,60.93,0,0,0,11.18,9.48,56.21,56.21,0,0,0,13.5,6.47,57.88,57.88,0,0,0,15.34,2.67Z"/><path class="cls-2" d="M115,360.59c28.46-30.54,114.32-114.33,237.64-114,122.39.34,207.56,83.35,236.11,114"/><polyline class="cls-3" points="659.39 304.52 567.87 232.28 567.87 96.65 488 97.28 487.52 168.85 349.17 59.64 38.95 304.52"/></svg>