<svg id="Layer_3" data-name="Layer 3" xmlns="http://www.w3.org/2000/svg" viewBox="0 0 906.17 906.17"><defs><style>.cls-1,.cls-4{fill:#332f2a;}.cls-2,.cls-3{fill:none;stroke:#332f2a;}.cls-2{stroke-linejoin:bevel;stroke-width:22.4px;}.cls-3{stroke-linecap:square;stroke-miterlimit:10;stroke-width:16px;}.cls-4{font-size:153.6px;font-family:Barlow-Black, Barlow;font-weight:800;}.cls-5{letter-spacing:-0.06em;}.cls-6{letter-spacing:-0.06em;}.cls-7{letter-spacing:-0.01em;}.cls-8{letter-spacing:-0.01em;}</style></defs><path class="cls-1" d="M481.52,512.66c-11.08-16.45-41.58-27.11-41.58-27.11s-.83,12.49-4.11,18.89c-3.85,7.53-6.38,10.88-13,18.88-4.57,5.51-14.75,19.47-12.34,32.87,2.44,13.57,14.26,24.24,24.34,28,1,.38,2.63.92,4.68,1.46-.14-.19-.27-.38-.39-.56A43.42,43.42,0,0,1,433,553.93c2.81-14.95,11.89-21.58,14.76-23.4.27-.17,1,.17.84.5-3.62,9.1-1.26,22.5,4.39,25.18,6.82,3.24,11-2.61,12.22-10.62.11-.7.91-.85,1.18-.21a45.17,45.17,0,0,1,3.26,16.73c.15,17.16-8.21,23.42-11.37,25.73a16.51,16.51,0,0,0,2.41-.15c12.49-2.64,23.14-15.25,27.82-25.72C499,538.61,484.57,517.19,481.52,512.66Z"/><path class="cls-1" d="M426.34,473.23a35.17,35.17,0,0,1-6,1.12,35.6,35.6,0,0,1-6.2.14,38.94,38.94,0,0,1-6.23-.88,38.45,38.45,0,0,1-6.09-1.84,48.14,48.14,0,0,1-11.24-6.18,56.87,56.87,0,0,1-9.41-8.81l1-8.46a106.05,106.05,0,0,1,33.92-22.49,96,96,0,0,1,9.88-3.42,98.87,98.87,0,0,1,10.26-2.31,94.38,94.38,0,0,1,21.12-1.1c1.77.08,3.53.33,5.29.49s3.51.46,5.25.8l2.6.49c.87.18,1.73.39,2.59.58,1.73.36,3.42.87,5.12,1.34a100.69,100.69,0,0,1,9.91,3.56,99.43,99.43,0,0,1,9.4,4.57,107.26,107.26,0,0,1,17,11.71A113.36,113.36,0,0,1,529,457l-12.07,9.44a165.71,165.71,0,0,0-14.09-22.73A123.59,123.59,0,0,0,484.53,424a103.32,103.32,0,0,0-47.81-23.6A93.82,93.82,0,0,0,410.2,399a108.53,108.53,0,0,0-25.68,5.54,140.14,140.14,0,0,0-23.77,10.76,150.1,150.1,0,0,0-21.32,14.52L324.5,416.65c.88-1.55,1.69-2.87,2.55-4.22s1.71-2.62,2.59-3.9q2.66-3.84,5.49-7.46a172,172,0,0,1,12.12-13.9,165.18,165.18,0,0,1,13.63-12.52A152.39,152.39,0,0,1,376,363.78a135,135,0,0,1,34.16-15.35,128.91,128.91,0,0,1,18.39-3.93q4.65-.64,9.33-1c3.11-.26,6.22-.34,9.37-.35a128.36,128.36,0,0,1,36.89,5.43,143.84,143.84,0,0,1,33.37,14.9,165.66,165.66,0,0,1,28.38,21.83A169.82,169.82,0,0,1,558,398.25a101.91,101.91,0,0,1,10.35,14.36l-1.82,1.31c-2-2-4.12-3.9-6.3-5.73s-4.37-3.65-6.63-5.38c-4.51-3.46-9.08-6.81-13.82-9.86A194.18,194.18,0,0,0,510.49,377a149.78,149.78,0,0,0-31-9.74,122.94,122.94,0,0,0-31.55-2,133,133,0,0,0-15.65,2.06,138.56,138.56,0,0,0-15.22,3.9,142.9,142.9,0,0,0-14.65,5.66,146.46,146.46,0,0,0-14,7.29,153.55,153.55,0,0,0-25.59,19,150.88,150.88,0,0,0-11.28,11.48q-2.67,3-5.13,6.15c-.82,1.05-1.61,2.1-2.38,3.15s-1.51,2.13-2.11,3.05L327,413.81a134.83,134.83,0,0,1,53.83-23.4A127.64,127.64,0,0,1,410,388.27a130.79,130.79,0,0,1,14.43,1.43c2.38.39,4.75.79,7.09,1.32s4.68,1.06,7,1.68a144.57,144.57,0,0,1,26.65,10.24c4.23,2.15,8.39,4.46,12.4,7s7.95,5.18,11.79,8a201.41,201.41,0,0,1,21.71,18.59A178.31,178.31,0,0,1,530,458.3l-12.08,9.45a135.84,135.84,0,0,0-29.47-19.42c-10.43-5-21.34-8.61-32.61-9.68a84.26,84.26,0,0,0-25.48,1.27c-2.81.58-5.62,1.26-8.4,2.11a111.75,111.75,0,0,0-31.71,15.83l1-8.45a49.57,49.57,0,0,0,6.24,8.29,43.21,43.21,0,0,0,8,6.77,39.89,39.89,0,0,0,9.64,4.63,40.18,40.18,0,0,0,11,1.9Z"/><path class="cls-2" d="M282,360.39c20.34-21.81,81.66-81.66,169.75-81.41,87.42.25,148.25,59.54,168.65,81.41"/><polyline class="cls-3" points="670.84 320.34 605.47 268.74 605.47 171.87 548.42 172.32 548.08 223.44 449.25 145.43 227.67 320.34"/><text class="cls-4" transform="translate(22.78 760.74)">Smo<tspan class="cls-5" x="307.96" y="0">k</tspan><tspan x="383.38" y="0">e</tspan><tspan class="cls-6" x="468.17" y="0">T</tspan><tspan class="cls-7" x="550.34" y="0">r</tspan><tspan x="609.94" y="0">a</tspan><tspan class="cls-8" x="692.88" y="0">c</tspan><tspan x="775.83" y="0">e</tspan></text></svg>